<mxfile host="app.diagrams.net" modified="2023-09-26T07:08:30.401Z" agent="Mozilla/5.0 (Windows NT 10.0; Win64; x64) AppleWebKit/537.36 (KHTML, like Gecko) Chrome/117.0.0.0 Safari/537.36 Edg/117.0.2045.41" etag="WLMlIA4bd9t_obPgvfkn" version="21.8.2" type="github">
  <diagram name="Page-1" id="gGgDct-h_yfA86tE-ynU">
    <mxGraphModel dx="785" dy="507" grid="1" gridSize="10" guides="1" tooltips="1" connect="1" arrows="1" fold="1" page="1" pageScale="1" pageWidth="850" pageHeight="1100" math="0" shadow="0">
      <root>
        <mxCell id="0" />
        <mxCell id="1" parent="0" />
        <mxCell id="JEW0bm9NCuaqNSTQFk5y-45" value="" style="rounded=0;whiteSpace=wrap;html=1;" parent="1" vertex="1">
          <mxGeometry x="60" y="40" width="700" height="680" as="geometry" />
        </mxCell>
        <mxCell id="JEW0bm9NCuaqNSTQFk5y-37" value="" style="rounded=0;whiteSpace=wrap;html=1;" parent="1" vertex="1">
          <mxGeometry x="140" y="60" width="490" height="620" as="geometry" />
        </mxCell>
        <mxCell id="JEW0bm9NCuaqNSTQFk5y-1" value="Patient" style="shape=umlActor;verticalLabelPosition=bottom;verticalAlign=top;html=1;outlineConnect=0;" parent="1" vertex="1">
          <mxGeometry x="80" y="90" width="30" height="60" as="geometry" />
        </mxCell>
        <mxCell id="JEW0bm9NCuaqNSTQFk5y-2" value="Registration" style="ellipse;whiteSpace=wrap;html=1;" parent="1" vertex="1">
          <mxGeometry x="230" y="70" width="120" height="60" as="geometry" />
        </mxCell>
        <mxCell id="JEW0bm9NCuaqNSTQFk5y-3" value="Login" style="ellipse;whiteSpace=wrap;html=1;" parent="1" vertex="1">
          <mxGeometry x="230" y="160" width="120" height="60" as="geometry" />
        </mxCell>
        <mxCell id="JEW0bm9NCuaqNSTQFk5y-4" value="Upload glycemic levels &amp;amp; accept t/c" style="ellipse;whiteSpace=wrap;html=1;" parent="1" vertex="1">
          <mxGeometry x="230" y="260" width="120" height="60" as="geometry" />
        </mxCell>
        <mxCell id="JEW0bm9NCuaqNSTQFk5y-5" value="Search similar recipes" style="ellipse;whiteSpace=wrap;html=1;" parent="1" vertex="1">
          <mxGeometry x="230" y="360" width="120" height="60" as="geometry" />
        </mxCell>
        <mxCell id="JEW0bm9NCuaqNSTQFk5y-6" value="Manage&lt;br&gt;users" style="ellipse;whiteSpace=wrap;html=1;" parent="1" vertex="1">
          <mxGeometry x="230" y="480" width="120" height="60" as="geometry" />
        </mxCell>
        <mxCell id="JEW0bm9NCuaqNSTQFk5y-7" value="Manage&lt;br&gt;recipes" style="ellipse;whiteSpace=wrap;html=1;" parent="1" vertex="1">
          <mxGeometry x="230" y="580" width="120" height="60" as="geometry" />
        </mxCell>
        <mxCell id="JEW0bm9NCuaqNSTQFk5y-9" value="Admin" style="shape=umlActor;verticalLabelPosition=bottom;verticalAlign=top;html=1;outlineConnect=0;" parent="1" vertex="1">
          <mxGeometry x="80" y="500" width="30" height="60" as="geometry" />
        </mxCell>
        <mxCell id="JEW0bm9NCuaqNSTQFk5y-12" value="" style="endArrow=none;html=1;rounded=0;exitX=1;exitY=0.3333333333333333;exitDx=0;exitDy=0;exitPerimeter=0;entryX=0;entryY=0.5;entryDx=0;entryDy=0;" parent="1" source="JEW0bm9NCuaqNSTQFk5y-1" target="JEW0bm9NCuaqNSTQFk5y-2" edge="1">
          <mxGeometry width="50" height="50" relative="1" as="geometry">
            <mxPoint x="270" y="240" as="sourcePoint" />
            <mxPoint x="320" y="190" as="targetPoint" />
          </mxGeometry>
        </mxCell>
        <mxCell id="JEW0bm9NCuaqNSTQFk5y-13" value="" style="endArrow=none;html=1;rounded=0;entryX=0;entryY=0.5;entryDx=0;entryDy=0;" parent="1" target="JEW0bm9NCuaqNSTQFk5y-3" edge="1">
          <mxGeometry width="50" height="50" relative="1" as="geometry">
            <mxPoint x="120" y="110" as="sourcePoint" />
            <mxPoint x="240" y="110" as="targetPoint" />
          </mxGeometry>
        </mxCell>
        <mxCell id="JEW0bm9NCuaqNSTQFk5y-14" value="Verify Login" style="ellipse;whiteSpace=wrap;html=1;" parent="1" vertex="1">
          <mxGeometry x="450" y="90" width="120" height="60" as="geometry" />
        </mxCell>
        <mxCell id="JEW0bm9NCuaqNSTQFk5y-15" value="" style="endArrow=none;dashed=1;html=1;rounded=0;entryX=0.047;entryY=0.659;entryDx=0;entryDy=0;entryPerimeter=0;exitX=1;exitY=0;exitDx=0;exitDy=0;" parent="1" source="JEW0bm9NCuaqNSTQFk5y-3" target="JEW0bm9NCuaqNSTQFk5y-14" edge="1">
          <mxGeometry width="50" height="50" relative="1" as="geometry">
            <mxPoint x="270" y="240" as="sourcePoint" />
            <mxPoint x="320" y="190" as="targetPoint" />
          </mxGeometry>
        </mxCell>
        <mxCell id="JEW0bm9NCuaqNSTQFk5y-16" value="&amp;lt;&amp;lt;include&amp;gt;&amp;gt;" style="edgeLabel;html=1;align=center;verticalAlign=middle;resizable=0;points=[];" parent="JEW0bm9NCuaqNSTQFk5y-15" vertex="1" connectable="0">
          <mxGeometry x="-0.1164" y="-3" relative="1" as="geometry">
            <mxPoint x="2" y="-12" as="offset" />
          </mxGeometry>
        </mxCell>
        <mxCell id="JEW0bm9NCuaqNSTQFk5y-17" value="Display Login Error" style="ellipse;whiteSpace=wrap;html=1;" parent="1" vertex="1">
          <mxGeometry x="450" y="160" width="120" height="60" as="geometry" />
        </mxCell>
        <mxCell id="JEW0bm9NCuaqNSTQFk5y-18" value="" style="endArrow=none;dashed=1;html=1;rounded=0;entryX=0;entryY=0.5;entryDx=0;entryDy=0;exitX=1;exitY=0.5;exitDx=0;exitDy=0;" parent="1" source="JEW0bm9NCuaqNSTQFk5y-3" target="JEW0bm9NCuaqNSTQFk5y-17" edge="1">
          <mxGeometry width="50" height="50" relative="1" as="geometry">
            <mxPoint x="359" y="194" as="sourcePoint" />
            <mxPoint x="466" y="140" as="targetPoint" />
          </mxGeometry>
        </mxCell>
        <mxCell id="JEW0bm9NCuaqNSTQFk5y-19" value="&amp;lt;&amp;lt;extend&amp;gt;&amp;gt;" style="edgeLabel;html=1;align=center;verticalAlign=middle;resizable=0;points=[];" parent="JEW0bm9NCuaqNSTQFk5y-18" vertex="1" connectable="0">
          <mxGeometry x="-0.1164" y="-3" relative="1" as="geometry">
            <mxPoint x="2" y="-12" as="offset" />
          </mxGeometry>
        </mxCell>
        <mxCell id="JEW0bm9NCuaqNSTQFk5y-22" value="" style="endArrow=none;html=1;rounded=0;entryX=0.055;entryY=0.236;entryDx=0;entryDy=0;entryPerimeter=0;" parent="1" target="JEW0bm9NCuaqNSTQFk5y-4" edge="1">
          <mxGeometry width="50" height="50" relative="1" as="geometry">
            <mxPoint x="120" y="110" as="sourcePoint" />
            <mxPoint x="240" y="200" as="targetPoint" />
          </mxGeometry>
        </mxCell>
        <mxCell id="JEW0bm9NCuaqNSTQFk5y-23" value="Check Suitable recipes" style="ellipse;whiteSpace=wrap;html=1;" parent="1" vertex="1">
          <mxGeometry x="450" y="260" width="120" height="60" as="geometry" />
        </mxCell>
        <mxCell id="JEW0bm9NCuaqNSTQFk5y-24" value="" style="endArrow=none;dashed=1;html=1;rounded=0;entryX=0;entryY=0.5;entryDx=0;entryDy=0;exitX=1;exitY=0.5;exitDx=0;exitDy=0;" parent="1" source="JEW0bm9NCuaqNSTQFk5y-4" target="JEW0bm9NCuaqNSTQFk5y-23" edge="1">
          <mxGeometry width="50" height="50" relative="1" as="geometry">
            <mxPoint x="350" y="269" as="sourcePoint" />
            <mxPoint x="473" y="230" as="targetPoint" />
          </mxGeometry>
        </mxCell>
        <mxCell id="JEW0bm9NCuaqNSTQFk5y-25" value="&amp;lt;&amp;lt;include&amp;gt;&amp;gt;" style="edgeLabel;html=1;align=center;verticalAlign=middle;resizable=0;points=[];" parent="JEW0bm9NCuaqNSTQFk5y-24" vertex="1" connectable="0">
          <mxGeometry x="-0.1164" y="-3" relative="1" as="geometry">
            <mxPoint x="2" y="-12" as="offset" />
          </mxGeometry>
        </mxCell>
        <mxCell id="JEW0bm9NCuaqNSTQFk5y-26" value="Display food" style="ellipse;whiteSpace=wrap;html=1;" parent="1" vertex="1">
          <mxGeometry x="450" y="360" width="120" height="60" as="geometry" />
        </mxCell>
        <mxCell id="JEW0bm9NCuaqNSTQFk5y-27" value="" style="endArrow=none;dashed=1;html=1;rounded=0;exitX=1;exitY=0.5;exitDx=0;exitDy=0;" parent="1" source="JEW0bm9NCuaqNSTQFk5y-5" target="JEW0bm9NCuaqNSTQFk5y-26" edge="1">
          <mxGeometry width="50" height="50" relative="1" as="geometry">
            <mxPoint x="360" y="349" as="sourcePoint" />
            <mxPoint x="460" y="349" as="targetPoint" />
          </mxGeometry>
        </mxCell>
        <mxCell id="JEW0bm9NCuaqNSTQFk5y-28" value="&amp;lt;&amp;lt;include&amp;gt;&amp;gt;" style="edgeLabel;html=1;align=center;verticalAlign=middle;resizable=0;points=[];" parent="JEW0bm9NCuaqNSTQFk5y-27" vertex="1" connectable="0">
          <mxGeometry x="-0.1164" y="-3" relative="1" as="geometry">
            <mxPoint x="2" y="-12" as="offset" />
          </mxGeometry>
        </mxCell>
        <mxCell id="JEW0bm9NCuaqNSTQFk5y-29" value="" style="endArrow=none;dashed=1;html=1;rounded=0;entryX=0;entryY=1;entryDx=0;entryDy=0;" parent="1" source="JEW0bm9NCuaqNSTQFk5y-5" target="JEW0bm9NCuaqNSTQFk5y-23" edge="1">
          <mxGeometry width="50" height="50" relative="1" as="geometry">
            <mxPoint x="350" y="340" as="sourcePoint" />
            <mxPoint x="450" y="340" as="targetPoint" />
          </mxGeometry>
        </mxCell>
        <mxCell id="JEW0bm9NCuaqNSTQFk5y-30" value="&amp;lt;&amp;lt;extend&amp;gt;&amp;gt;" style="edgeLabel;html=1;align=center;verticalAlign=middle;resizable=0;points=[];" parent="JEW0bm9NCuaqNSTQFk5y-29" vertex="1" connectable="0">
          <mxGeometry x="-0.1164" y="-3" relative="1" as="geometry">
            <mxPoint x="2" y="-12" as="offset" />
          </mxGeometry>
        </mxCell>
        <mxCell id="JEW0bm9NCuaqNSTQFk5y-31" value="" style="endArrow=none;html=1;rounded=0;exitX=1;exitY=0.3333333333333333;exitDx=0;exitDy=0;exitPerimeter=0;entryX=0;entryY=0.5;entryDx=0;entryDy=0;" parent="1" source="JEW0bm9NCuaqNSTQFk5y-9" target="JEW0bm9NCuaqNSTQFk5y-6" edge="1">
          <mxGeometry width="50" height="50" relative="1" as="geometry">
            <mxPoint x="80" y="440" as="sourcePoint" />
            <mxPoint x="200" y="430" as="targetPoint" />
          </mxGeometry>
        </mxCell>
        <mxCell id="JEW0bm9NCuaqNSTQFk5y-32" value="" style="endArrow=none;html=1;rounded=0;entryX=0;entryY=0.5;entryDx=0;entryDy=0;" parent="1" target="JEW0bm9NCuaqNSTQFk5y-7" edge="1">
          <mxGeometry width="50" height="50" relative="1" as="geometry">
            <mxPoint x="110" y="520" as="sourcePoint" />
            <mxPoint x="240" y="520" as="targetPoint" />
          </mxGeometry>
        </mxCell>
        <mxCell id="JEW0bm9NCuaqNSTQFk5y-33" value="Update Recipes" style="ellipse;whiteSpace=wrap;html=1;" parent="1" vertex="1">
          <mxGeometry x="450" y="580" width="120" height="60" as="geometry" />
        </mxCell>
        <mxCell id="JEW0bm9NCuaqNSTQFk5y-34" value="" style="endArrow=none;dashed=1;html=1;rounded=0;exitX=1;exitY=0.5;exitDx=0;exitDy=0;entryX=0;entryY=0.5;entryDx=0;entryDy=0;" parent="1" source="JEW0bm9NCuaqNSTQFk5y-7" target="JEW0bm9NCuaqNSTQFk5y-33" edge="1">
          <mxGeometry width="50" height="50" relative="1" as="geometry">
            <mxPoint x="350" y="570" as="sourcePoint" />
            <mxPoint x="450" y="570" as="targetPoint" />
          </mxGeometry>
        </mxCell>
        <mxCell id="JEW0bm9NCuaqNSTQFk5y-35" value="&amp;lt;&amp;lt;include&amp;gt;&amp;gt;" style="edgeLabel;html=1;align=center;verticalAlign=middle;resizable=0;points=[];" parent="JEW0bm9NCuaqNSTQFk5y-34" vertex="1" connectable="0">
          <mxGeometry x="-0.1164" y="-3" relative="1" as="geometry">
            <mxPoint x="2" y="-12" as="offset" />
          </mxGeometry>
        </mxCell>
        <mxCell id="JEW0bm9NCuaqNSTQFk5y-38" value="Recommender&lt;br&gt;Model" style="whiteSpace=wrap;html=1;aspect=fixed;" parent="1" vertex="1">
          <mxGeometry x="650" y="300" width="80" height="80" as="geometry" />
        </mxCell>
        <mxCell id="JEW0bm9NCuaqNSTQFk5y-39" value="" style="endArrow=none;html=1;rounded=0;entryX=0;entryY=0.25;entryDx=0;entryDy=0;exitX=1;exitY=0.5;exitDx=0;exitDy=0;" parent="1" source="JEW0bm9NCuaqNSTQFk5y-23" target="JEW0bm9NCuaqNSTQFk5y-38" edge="1">
          <mxGeometry width="50" height="50" relative="1" as="geometry">
            <mxPoint x="20" y="450" as="sourcePoint" />
            <mxPoint x="70" y="400" as="targetPoint" />
          </mxGeometry>
        </mxCell>
        <mxCell id="JEW0bm9NCuaqNSTQFk5y-40" value="" style="endArrow=none;html=1;rounded=0;entryX=0;entryY=0.5;entryDx=0;entryDy=0;exitX=1;exitY=0.5;exitDx=0;exitDy=0;" parent="1" source="JEW0bm9NCuaqNSTQFk5y-26" target="JEW0bm9NCuaqNSTQFk5y-38" edge="1">
          <mxGeometry width="50" height="50" relative="1" as="geometry">
            <mxPoint x="580" y="300" as="sourcePoint" />
            <mxPoint x="650" y="330" as="targetPoint" />
          </mxGeometry>
        </mxCell>
        <mxCell id="JEW0bm9NCuaqNSTQFk5y-41" value="Recipe Database" style="whiteSpace=wrap;html=1;aspect=fixed;" parent="1" vertex="1">
          <mxGeometry x="650" y="510" width="80" height="80" as="geometry" />
        </mxCell>
        <mxCell id="JEW0bm9NCuaqNSTQFk5y-43" value="" style="endArrow=none;html=1;rounded=0;exitX=1;exitY=0.5;exitDx=0;exitDy=0;entryX=0;entryY=0.75;entryDx=0;entryDy=0;" parent="1" source="JEW0bm9NCuaqNSTQFk5y-33" target="JEW0bm9NCuaqNSTQFk5y-41" edge="1">
          <mxGeometry width="50" height="50" relative="1" as="geometry">
            <mxPoint x="730" y="470" as="sourcePoint" />
            <mxPoint x="780" y="420" as="targetPoint" />
          </mxGeometry>
        </mxCell>
        <mxCell id="JEW0bm9NCuaqNSTQFk5y-44" value="" style="endArrow=none;html=1;rounded=0;exitX=1;exitY=0.5;exitDx=0;exitDy=0;entryX=0;entryY=0.25;entryDx=0;entryDy=0;" parent="1" source="JEW0bm9NCuaqNSTQFk5y-6" target="JEW0bm9NCuaqNSTQFk5y-41" edge="1">
          <mxGeometry width="50" height="50" relative="1" as="geometry">
            <mxPoint x="580" y="620" as="sourcePoint" />
            <mxPoint x="660" y="580" as="targetPoint" />
          </mxGeometry>
        </mxCell>
      </root>
    </mxGraphModel>
  </diagram>
</mxfile>
